<svg xmlns="http://www.w3.org/2000/svg" width="136" height="32" fill="none"><path fill="#2A8BF4" d="M8.246 0 0 5.205v21.59L8.246 32h7.998L8 26.796V5.206L16.244 0H8.246Z"/><path fill="#2A8BF4" d="m19.712 0-8.246 5.205v21.59L19.712 32h8l-8.246-5.204V5.206L27.711 0h-8Z"/><path fill="#121F26" d="M35.123 27.69V5.96H50.5v4.073H39.75v4.593h10.523V18.7H39.75v4.918h10.75v4.073H35.123ZM70.306 16.841c0-3.843-2.346-6.808-6.808-6.808h-3.942v13.584h3.942c4.3 0 6.808-3.095 6.808-6.776ZM54.93 27.691V5.96h8.568c6.808 0 11.532 4.333 11.532 10.881 0 6.549-4.724 10.85-11.532 10.85H54.93ZM77.667 25.638l1.793-2.9c1.139 1.076 3.485 2.152 5.44 2.152 1.792 0 2.638-.718 2.638-1.696 0-2.605-9.35-.488-9.35-6.678 0-2.64 2.313-4.951 6.45-4.951 2.672 0 4.79.912 6.354 2.15l-1.661 2.835c-.946-1.01-2.738-1.826-4.659-1.826-1.5 0-2.476.684-2.476 1.565 0 2.345 9.316.39 9.316 6.742 0 2.868-2.442 5.052-6.808 5.052-2.737 0-5.376-.914-7.037-2.445ZM106.726 19.807c0-2.444-1.466-4.561-4.04-4.561-2.573 0-4.007 2.117-4.007 4.561 0 2.475 1.434 4.593 4.007 4.593 2.574 0 4.04-2.118 4.04-4.593Zm-12.348 0c0-4.464 3.128-8.242 8.308-8.242 5.213 0 8.34 3.778 8.34 8.242 0 4.495-3.127 8.274-8.34 8.274-5.18 0-8.308-3.78-8.308-8.274ZM115.813 27.689v-12.12h-2.606v-3.615h2.606v-.848c0-3.355 2.151-5.472 5.31-5.472 1.498 0 3.096.39 4.105 1.466l-1.563 2.443c-.424-.424-.978-.652-1.727-.652-1.141 0-1.954.75-1.954 2.215v.848h3.191v3.615h-3.191v12.12h-4.171ZM127.184 23.782v-8.21h-2.606v-3.616h2.606v-4.3h4.17v4.3h3.192v3.616h-3.192v7.102c0 .978.521 1.727 1.433 1.727.62 0 1.205-.23 1.435-.456l.879 3.127c-.62.554-1.727 1.01-3.454 1.01-2.899 0-4.463-1.498-4.463-4.3"/></svg>